<svg width="200" height="200" viewBox="0 0 200 200" fill="none" xmlns="http://www.w3.org/2000/svg">
<path fill-rule="evenodd" clip-rule="evenodd" d="M84.874 14.4425C83.942 14.4425 82.9991 14.6199 82.0889 15.002L24.8106 38.8293C23.0064 39.5798 21.5989 40.9907 20.8544 42.8028C20.1044 44.6121 20.1044 46.6071 20.8544 48.4192L75.5432 181.026C77.0865 184.768 81.3797 186.55 85.0887 185L142.367 161.17C146.092 159.62 147.867 155.319 146.326 151.577L91.6371 18.9727C90.4714 16.1482 87.7433 14.4425 84.874 14.4425M82.3171 194.118C76.1002 194.118 70.1903 190.42 67.6661 184.304L12.9773 51.694C11.3605 47.7724 11.3605 43.4496 12.9773 39.5252C14.5967 35.6008 17.6399 32.5443 21.5473 30.9205L78.8255 7.09045C86.8847 3.7419 96.1666 7.59259 99.5115 15.6951L154.2 148.302C157.537 156.405 153.695 165.725 145.633 169.079L88.3547 192.909C86.3793 193.73 84.3306 194.118 82.3171 194.118" fill="url(#paint0_radial)"/>
<path fill-rule="evenodd" clip-rule="evenodd" d="M133.571 103.682C117.137 110.526 103.419 119.987 94.4324 131.373L71.2722 75.0914C81.0983 63.1929 93.9745 54.2478 110.408 47.4033C126.846 40.5587 143.446 37.2297 157.548 39.1629L180.711 95.4413C166.063 93.9002 150.006 96.8398 133.571 103.682" fill="url(#paint1_linear)"/>
<path fill-rule="evenodd" clip-rule="evenodd" d="M133.571 103.682C117.137 110.526 103.419 119.987 94.4324 131.373L71.2722 75.0914C81.0983 63.1929 93.9745 54.2478 110.408 47.4033C126.846 40.5587 143.446 37.2297 157.548 39.1629L180.711 95.4413C166.063 93.9002 150.006 96.8398 133.571 103.682" fill="url(#paint2_radial)"/>
<path fill-rule="evenodd" clip-rule="evenodd" d="M141.379 120.936C123.533 120.934 107.202 124.363 94.528 131.359L94.5363 74.9606C108.187 67.8129 123.541 64.5326 141.387 64.5353C159.233 64.5381 175.895 67.8238 188.235 74.9741L188.227 131.373C175.236 124.372 159.225 120.939 141.379 120.936" fill="white"/>
<defs>
<radialGradient id="paint0_radial" cx="0" cy="0" r="1" gradientUnits="userSpaceOnUse" gradientTransform="translate(116.685 89.6524) rotate(-78.9058) scale(54.1811 42.4427)">
<stop stop-color="#626262"/>
<stop offset="1" stop-color="white"/>
</radialGradient>
<linearGradient id="paint1_linear" x1="110.165" y1="154.686" x2="160.258" y2="120.511" gradientUnits="userSpaceOnUse">
<stop stop-color="#D3D0DD"/>
<stop offset="1" stop-color="white"/>
</linearGradient>
<radialGradient id="paint2_radial" cx="0" cy="0" r="1" gradientUnits="userSpaceOnUse" gradientTransform="translate(138.824 87.3076) rotate(90) scale(35.5541 81.3131)">
<stop stop-color="#DAD7E2"/>
<stop offset="0.581832" stop-color="#D9D6E2"/>
<stop offset="1" stop-color="white" stop-opacity="0.01"/>
</radialGradient>
</defs>
</svg>
