<svg width="200" height="200" viewBox="0 0 200 200" fill="none" xmlns="http://www.w3.org/2000/svg">
<path fill-rule="evenodd" clip-rule="evenodd" d="M85.2221 14.4425C84.2857 14.4425 83.3384 14.6199 82.4238 15.002L24.8727 38.8293C23.0599 39.5798 21.6457 40.9907 20.8977 42.8028C20.1441 44.6121 20.1441 46.6071 20.8977 48.4192L75.8469 181.026C77.3976 184.768 81.7112 186.55 85.4378 185L142.989 161.17C146.732 159.62 148.515 155.319 146.967 151.577L92.0174 18.9727C90.8462 16.1482 88.1052 14.4425 85.2221 14.4425M82.6531 194.118C76.4066 194.118 70.4685 190.42 67.9323 184.304L12.983 51.694C11.3586 47.7724 11.3586 43.4496 12.983 39.5252C14.6102 35.6008 17.6679 32.5443 21.5938 30.9205L79.1449 7.09045C87.2424 3.7419 96.5685 7.59259 99.9293 15.6951L154.879 148.302C158.231 156.405 154.371 165.725 146.27 169.079L88.7194 192.909C86.7346 193.73 84.6761 194.118 82.6531 194.118" fill="url(#paint0_radial)"/>
<path fill-rule="evenodd" clip-rule="evenodd" d="M133.571 103.203C117.137 109.997 103.419 119.389 94.4324 130.691L71.2722 74.8232C81.0984 63.0122 93.9745 54.1329 110.408 47.3387C126.846 40.5445 143.446 37.2399 157.548 39.1589L180.711 95.0235C166.064 93.4937 150.006 96.4118 133.571 103.203" fill="url(#paint1_linear)"/>
<path fill-rule="evenodd" clip-rule="evenodd" d="M133.571 103.203C117.137 109.997 103.419 119.389 94.4324 130.691L71.2722 74.8232C81.0984 63.0122 93.9745 54.1329 110.408 47.3387C126.846 40.5445 143.446 37.2399 157.548 39.1589L180.711 95.0235C166.064 93.4937 150.006 96.4118 133.571 103.203" fill="url(#paint2_radial)"/>
<path fill-rule="evenodd" clip-rule="evenodd" d="M141.379 120.83C123.533 120.827 107.202 124.292 94.528 131.359L94.5363 74.3849C108.187 67.1644 123.541 63.8506 141.387 63.8533C159.233 63.8561 175.895 67.1753 188.235 74.3987L188.227 131.373C175.236 124.3 159.225 120.833 141.379 120.83" fill="#5A78FF"/>
<defs>
<radialGradient id="paint0_radial" cx="0" cy="0" r="1" gradientUnits="userSpaceOnUse" gradientTransform="translate(122.885 81.7082) rotate(-113.21) scale(60.6906 51.5994)">
<stop stop-color="#1D275A"/>
<stop offset="0.610802" stop-color="#4960DA"/>
<stop offset="1" stop-color="#5A78FF"/>
</radialGradient>
<linearGradient id="paint1_linear" x1="110.165" y1="153.833" x2="160.023" y2="119.566" gradientUnits="userSpaceOnUse">
<stop stop-color="#3B50CC"/>
<stop offset="1" stop-color="#5A78FF"/>
</linearGradient>
<radialGradient id="paint2_radial" cx="0" cy="0" r="1" gradientUnits="userSpaceOnUse" gradientTransform="translate(138.824 86.9496) rotate(90) scale(35.2153 81.1348)">
<stop stop-color="#3E54B6"/>
<stop offset="0.646789" stop-color="#4B63DF"/>
<stop offset="1" stop-color="#5A78FF" stop-opacity="0.01"/>
</radialGradient>
</defs>
</svg>
